<?xml version="1.0" encoding="UTF-8"?>
<svg version="1.1" xmlns="http://www.w3.org/2000/svg" width="1080" height="1080">
<path d="M0 0 C356.4 0 712.8 0 1080 0 C1080 356.4 1080 712.8 1080 1080 C723.6 1080 367.2 1080 0 1080 C0 723.6 0 367.2 0 0 Z " fill="#000000" transform="translate(0,0)"/>
<path d="M0 0 C34.32123154 30.69159844 48.08140744 79.72787062 53.05810547 123.88671875 C53.21255127 125.19261963 53.21255127 125.19261963 53.37011719 126.52490234 C55.35358931 143.76199577 55.05810547 160.3911336 55.05810547 177.88671875 C5.55810547 177.88671875 -43.94189453 177.88671875 -94.94189453 177.88671875 C-95.64203774 163.8838545 -96.18959926 149.94112913 -96.19238281 135.92871094 C-96.20844182 124.38916668 -97.02752215 114.73705601 -104.00439453 105.01171875 C-114.59195231 97.3526344 -123.20459954 95.64467406 -135.94189453 96.88671875 C-143.09131305 98.03627264 -148.94819189 101.6801063 -153.94189453 106.88671875 C-161.48971994 118.56787713 -161.42044562 132.40327325 -159.32861328 145.8203125 C-156.89818199 155.0816476 -152.55392884 163.54522784 -147.94189453 171.88671875 C-147.40822266 172.85351562 -146.87455078 173.8203125 -146.32470703 174.81640625 C-136.5649641 191.17975633 -121.5854178 205.74501972 -107.09423828 217.953125 C-103.30896495 221.35368816 -99.77384188 225.01540253 -96.21508789 228.65063477 C-93.26084257 231.64872788 -90.25978093 234.51773321 -87.06689453 237.26171875 C-81.63526696 241.9502913 -76.68014551 247.10173994 -71.65283203 252.21484375 C-67.51658989 256.39372756 -63.30293161 260.37520371 -58.84423828 264.20703125 C-55.12141067 267.49412749 -51.70095712 271.08749492 -48.23095703 274.63671875 C-45.27050393 277.63735899 -42.26585573 280.51462451 -39.07080078 283.265625 C-34.46313863 287.24502004 -30.17185386 291.50991484 -25.87939453 295.82421875 C-25.115625 296.58412109 -24.35185547 297.34402344 -23.56494141 298.12695312 C-19.38769497 302.31134626 -15.3785913 306.58151693 -11.52124023 311.06225586 C-9.26540066 313.66820564 -6.91615271 316.17711725 -4.56689453 318.69921875 C40.10547706 367.25083218 59.49542022 424.94072431 59.3737793 490.34667969 C59.36688749 494.35239383 59.39412188 498.35764055 59.41943359 502.36328125 C59.46270454 519.71946411 58.37862303 536.68667698 56.05810547 553.88671875 C55.88430862 555.17554962 55.88430862 555.17554962 55.70700073 556.49041748 C55.02925598 561.37206667 54.2368015 566.22248978 53.37060547 571.07421875 C53.18510132 572.12387314 53.18510132 572.12387314 52.99584961 573.19473267 C50.55473412 586.83827733 46.85042964 599.87256342 42.05810547 612.88671875 C41.65591797 613.99998535 41.65591797 613.99998535 41.24560547 615.13574219 C33.33740003 636.81122716 22.29915364 656.45925969 6.05810547 672.88671875 C5.18992187 673.86318359 5.18992187 673.86318359 4.30419922 674.859375 C-12.27972839 693.17530549 -39.85587839 703.68471068 -63.54931641 708.40136719 C-65.16655484 708.72943556 -66.77994124 709.0770015 -68.38916016 709.44238281 C-118.65113068 720.73699292 -184.37530984 714.6721302 -228.87158203 687.54296875 C-263.83650385 665.36792895 -282.18344324 631.9337801 -292.94189453 592.88671875 C-293.1479834 592.15163086 -293.35407227 591.41654297 -293.56640625 590.65917969 C-296.10414943 581.44351492 -297.64961995 572.08280453 -299.06689453 562.63671875 C-299.30508911 561.09721558 -299.30508911 561.09721558 -299.5480957 559.52661133 C-303.62986392 530.67510184 -303.18762874 501.63323318 -303.06689453 472.57421875 C-303.02564453 458.48734375 -302.98439453 444.40046875 -302.94189453 429.88671875 C-254.76189453 429.88671875 -206.58189453 429.88671875 -156.94189453 429.88671875 C-156.62939453 481.88671875 -156.62939453 481.88671875 -156.55395508 498.21484375 C-156.5173266 503.10841386 -156.5173266 503.10841386 -156.47688293 508.00195312 C-156.46089163 510.15621723 -156.45049729 512.31052789 -156.44477844 514.46484375 C-156.53090719 542.90749378 -156.53090719 542.90749378 -144.24658203 567.94921875 C-142.55860147 569.51943323 -140.91847468 570.70493188 -138.94189453 571.88671875 C-138.29865234 572.2940625 -137.65541016 572.70140625 -136.99267578 573.12109375 C-127.62855289 578.17529686 -116.37432777 576.60951225 -106.50439453 573.80078125 C-100.94614818 571.81811411 -97.1017948 568.83722917 -93.94189453 563.88671875 C-89.77735079 554.28683299 -87.62944823 544.8942513 -87.64111328 534.453125 C-87.63468559 533.13791115 -87.63468559 533.13791115 -87.62812805 531.79612732 C-87.62241923 529.94815934 -87.62185885 528.10016891 -87.6262207 526.25219727 C-87.62935132 523.48738041 -87.60598027 520.72366717 -87.58056641 517.95898438 C-87.44992267 481.86072772 -98.72757293 446.96997482 -123.64111328 420.36328125 C-125.46037979 418.40502155 -127.19923445 416.41940635 -128.93481445 414.38891602 C-133.51060404 409.15435315 -138.42850945 404.27536415 -143.35595703 399.375 C-144.39017758 398.34270277 -145.42416763 397.31017456 -146.45794678 396.2774353 C-148.67013383 394.06838941 -150.88385969 391.86090183 -153.09881592 389.65463257 C-156.60739939 386.15966736 -160.11207977 382.66080534 -163.61621094 379.16137695 C-171.05513589 371.73351273 -178.49828912 364.30989214 -185.94189453 356.88671875 C-193.98021598 348.87046176 -202.01778865 340.85346237 -210.05047417 332.83155727 C-213.52774911 329.35923817 -217.00744099 325.88936568 -220.48905945 322.42140198 C-222.66084459 320.25712175 -224.83051495 318.09073069 -226.99964142 315.92378616 C-227.99882587 314.92645988 -228.99886731 313.92999124 -229.9998703 312.9344902 C-235.536205 307.42760804 -240.90395818 301.85491163 -245.94189453 295.88671875 C-246.49119125 295.23772614 -247.04048798 294.58873352 -247.60643005 293.92007446 C-278.16640763 257.64563981 -301.95162082 212.58355524 -302.14501953 164.13671875 C-302.1507196 163.00637207 -302.15641968 161.87602539 -302.16229248 160.71142578 C-302.17171361 158.31771774 -302.17826495 155.9239969 -302.18212891 153.53027344 C-302.19171546 149.95352844 -302.22271686 146.37738874 -302.25439453 142.80078125 C-302.34597917 123.14276779 -300.85671217 103.78077077 -296.19189453 84.63671875 C-295.80783447 83.02724365 -295.80783447 83.02724365 -295.41601562 81.38525391 C-291.45820348 65.32259619 -285.84823956 50.40659817 -277.94189453 35.88671875 C-277.38888672 34.84257812 -276.83587891 33.7984375 -276.26611328 32.72265625 C-271.67751147 24.42155799 -265.93814583 17.19299443 -259.94189453 9.88671875 C-259.36181641 9.16226563 -258.78173828 8.4378125 -258.18408203 7.69140625 C-254.53251933 3.24168777 -250.36382759 -0.4428395 -245.94189453 -4.11328125 C-245.19037109 -4.75265625 -244.43884766 -5.39203125 -243.66455078 -6.05078125 C-223.97446385 -22.39004301 -199.11454425 -32.92614744 -173.94189453 -37.11328125 C-173.15266602 -37.24863281 -172.3634375 -37.38398438 -171.55029297 -37.5234375 C-114.00501747 -47.06061642 -45.46723974 -39.14668175 0 0 Z " fill="#FEFEFE" transform="translate(1003.94189453125,182.11328125)"/>
<path d="M0 0 C48.84 0 97.68 0 148 0 C148 202.29 148 404.58 148 613 C198.49 613 248.98 613 301 613 C301 654.58 301 696.16 301 739 C201.67 739 102.34 739 0 739 C0 495.13 0 251.26 0 0 Z " fill="#FEFEFE" transform="translate(374,149)"/>
<path d="M0 0 C48.84 0 97.68 0 148 0 C148 202.29 148 404.58 148 613 C198.16 613 248.32 613 300 613 C300 654.58 300 696.16 300 739 C201 739 102 739 0 739 C0 495.13 0 251.26 0 0 Z " fill="#FEFEFE" transform="translate(33,149)"/>
</svg>
